<svg xmlns="http://www.w3.org/2000/svg" xmlns:osb="http://www.openswatchbook.org/uri/2009/osb" xmlns:svg="http://www.w3.org/2000/svg" id="svg3" width="128" height="128" version="1.1" viewBox="0 0 400 400"><metadata id="metadata9"/><defs id="defs7"><linearGradient id="linearGradient5985" osb:paint="solid"><stop style="stop-color:#5ccbd6;stop-opacity:1" id="stop5983" offset="0"/></linearGradient></defs><path id="Sélection" d="m 100,100 c 0,0 0,200 0,200 0,0 -67,0 -67,0 0,0 0,68 0,68 0,0 135,0 135,0 0,0 0,-200 0,-200 0,0 133,0 133,0 0,0 0,132 0,132 0,0 -68,0 -68,0 0,0 0,68 0,68 0,0 135,0 135,0 0,0 0,-268 0,-268 0,0 -268,0 -268,0 z" style="fill:none;stroke:#000;stroke-width:1"/><path style="fill:#5ccbd6;fill-opacity:1;stroke-width:.19175729" id="path5992" d="M 10.850861,106.88388 V 96.241355 H 21.589269 32.327678 V 64.217886 32.194417 h 42.57012 42.570122 V 74.860416 117.52641 H 96.182858 74.897798 V 106.88388 96.241355 H 85.732085 96.566373 V 74.85959 53.477824 l -21.524757,0.04877 -21.524757,0.04877 -0.0485,31.975529 -0.0485,31.975527 h -21.2845 -21.284498 z" transform="scale(3.1250078)"/><g id="layer1"><flowRoot id="flowRoot6219" transform="scale(3.1250078)" xml:space="preserve" style="font-style:normal;font-weight:400;font-size:40px;line-height:1.25;font-family:sans-serif;letter-spacing:0;word-spacing:0;fill:#000;fill-opacity:1;stroke:none"><flowRegion id="flowRegion6221" style="fill:#000;fill-opacity:1"><rect id="rect6223" width="1594.27" height="69.224" x="125.218" y="49.571" style="fill:#000;fill-opacity:1"/></flowRegion><flowPara id="flowPara6225" style="fill:#5ccbd6;fill-opacity:1">PhpTabs</flowPara></flowRoot></g></svg>